/* XPM */
static char *cross[] = {
    "100 100 8 1",
    " 	c #FFFFFF",
    ".	c #486DEF",
    "+	c #000000",
    "@	c #5273EF",
    "#	c #DCDFFB",
    "$	c #FAFAFF",
    "%	c #8F9EF3",
    "&	c #BDC5F7",
    "++++++++++++++++++++++++++++++++++++++++++++++++++++++++++++++++++++++++++++++++++++++++++++++++++++",
    "++++++++++++++++++++++++++++++++++++++++++++++++++++++++++++++++++++++++++++++++++++++++++++++++++++",
    "++                                                                                                ++",
    "++                                                                                                ++",
    "++                                                                                                ++",
    "++                                                                                                ++",
    "++                                                                                                ++",
    "++                                                                                                ++",
    "++                                                                                                ++",
    "++                                                                                                ++",
    "++                                                                                                ++",
    "++                                                                                                ++",
    "++                                                                                                ++",
    "++                  $                                                           $                 ++",
    "++                 #@#                                                         #@#                ++",
    "++                #@.@#                                                       #@.@#               ++",
    "++               #@...@#                                                     #@...@#              ++",
    "++              #@.....@#                                                   #@....@@#             ++",
    "++             #@.......@#                                                 #@......@@#            ++",
    "++            #@.........@#                                               #@........@@#           ++",
    "++            %...........@#                                             #@..........@%           ++",
    "++            $%...........@#                                           #@...........%$           ++",
    "++             $%...........@#                                         #@...........%$            ++",
    "++              $%...........@#                                       #@...........%$             ++",
    "++               $%...........@#                                     #@...........%$              ++",
    "++                $%...........@#                                   #@...........%$               ++",
    "++                 $%...........@#                                 #@...........%$                ++",
    "++                  $%...........@#                               #@...........%$                 ++",
    "++                   $%...........@#                             #@...........%$                  ++",
    "++                    $%...........@#                           #@...........%$                   ++",
    "++                     $%...........@#                         #@...........%$                    ++",
    "++                      $%...........@#                       #@...........%$                     ++",
    "++                       $%...........@#                     #@...........%$                      ++",
    "++                        $%...........@#                   #@...........%$                       ++",
    "++                         $%...........@#                 #@...........%$                        ++",
    "++                          $%...........@#               #@...........%$                         ++",
    "++                           $%...........@#             #@...........%$                          ++",
    "++                            $%...........@#           #@...........%$                           ++",
    "++                             $%...........@#         #@...........%$                            ++",
    "++                              $%...........@#       #@...........%$                             ++",
    "++                               $%...........@#     #@...........%$                              ++",
    "++                                $%...........@#   #@...........%$                               ++",
    "++                                 $%...........@# #@...........%$                                ++",
    "++                                  $%...........@&@...........%$                                 ++",
    "++                                   $%.......................%$                                  ++",
    "++                                    $%.....................%$                                   ++",
    "++                                     $%...................%$                                    ++",
    "++                                      $%.................%$                                     ++",
    "++                                       $%...............%$                                      ++",
    "++                                        $%.............%$                                       ++",
    "++                                         #.............#                                        ++",
    "++                                        #@.............@#                                       ++",
    "++                                       #@...............@#                                      ++",
    "++                                      #@.................@#                                     ++",
    "++                                     #@...................@#                                    ++",
    "++                                    #@.....................@#                                   ++",
    "++                                   #@...........@...........@#                                  ++",
    "++                                  #@...........%$%...........@#                                 ++",
    "++                                 #@...........%$ $%...........@#                                ++",
    "++                                #@...........%$   $%...........@#                               ++",
    "++                               #@...........%$     $%...........@#                              ++",
    "++                              #@...........%$       $%...........@#                             ++",
    "++                             #@...........%$         $%...........@#                            ++",
    "++                            #@...........%$           $%...........@#                           ++",
    "++                           #@...........%$             $%...........@#                          ++",
    "++                          #@...........%$               $%...........@#                         ++",
    "++                         #@...........%$                 $%...........@#                        ++",
    "++                        #@...........%$                   $%...........@#                       ++",
    "++                       #@...........%$                     $%...........@#                      ++",
    "++                      #@...........%$                       $%...........@#                     ++",
    "++                     #@...........%$                         $%...........@#                    ++",
    "++                    #@...........%$                           $%...........@#                   ++",
    "++                   #@...........%$                             $%...........@#                  ++",
    "++                  #@...........%$                               $%...........@#                 ++",
    "++                 #@...........%$                                 $%...........@#                ++",
    "++                #@...........%$                                   $%...........@#               ++",
    "++               #@...........%$                                     $%...........@#              ++",
    "++              #@...........%$                                       $%...........@#             ++",
    "++             #@...........%$                                         $%...........@#            ++",
    "++            #@...........%$                                           $%...........@#           ++",
    "++           $@...........%$                                             $%...........@$          ++",
    "++           $&..........%$                                               $%..........&           ++",
    "++             &........%$                                                 $%........&            ++",
    "++              &......%$                                                   $%......&             ++",
    "++               &....%$                                                     $%....&              ++",
    "++                &..%$                                                       $%..&               ++",
    "++                 &%$                                                         $%&                ++",
    "++                  $                                                           $                 ++",
    "++                                                                                                ++",
    "++                                                                                                ++",
    "++                                                                                                ++",
    "++                                                                                                ++",
    "++                                                                                                ++",
    "++                                                                                                ++",
    "++                                                                                                ++",
    "++                                                                                                ++",
    "++                                                                                                ++",
    "++                                                                                                ++",
    "++++++++++++++++++++++++++++++++++++++++++++++++++++++++++++++++++++++++++++++++++++++++++++++++++++",
    "++++++++++++++++++++++++++++++++++++++++++++++++++++++++++++++++++++++++++++++++++++++++++++++++++++"};
