/* XPM */
static char *none[] = {
    "100 100 2 1",
    " 	c #FFFFFF",
    ".	c #000000",
    "....................................................................................................",
    "....................................................................................................",
    "..                                                                                                ..",
    "..                                                                                                ..",
    "..                                                                                                ..",
    "..                                                                                                ..",
    "..                                                                                                ..",
    "..                                                                                                ..",
    "..                                                                                                ..",
    "..                                                                                                ..",
    "..                                                                                                ..",
    "..                                                                                                ..",
    "..                                                                                                ..",
    "..                                                                                                ..",
    "..                                                                                                ..",
    "..                                                                                                ..",
    "..                                                                                                ..",
    "..                                                                                                ..",
    "..                                                                                                ..",
    "..                                                                                                ..",
    "..                                                                                                ..",
    "..                                                                                                ..",
    "..                                                                                                ..",
    "..                                                                                                ..",
    "..                                                                                                ..",
    "..                                                                                                ..",
    "..                                                                                                ..",
    "..                                                                                                ..",
    "..                                                                                                ..",
    "..                                                                                                ..",
    "..                                                                                                ..",
    "..                                                                                                ..",
    "..                                                                                                ..",
    "..                                                                                                ..",
    "..                                                                                                ..",
    "..                                                                                                ..",
    "..                                                                                                ..",
    "..                                                                                                ..",
    "..                                                                                                ..",
    "..                                                                                                ..",
    "..                                                                                                ..",
    "..                                                                                                ..",
    "..                                                                                                ..",
    "..                                                                                                ..",
    "..                                                                                                ..",
    "..                                                                                                ..",
    "..                                                                                                ..",
    "..                                                                                                ..",
    "..                                                                                                ..",
    "..                                                                                                ..",
    "..                                                                                                ..",
    "..                                                                                                ..",
    "..                                                                                                ..",
    "..                                                                                                ..",
    "..                                                                                                ..",
    "..                                                                                                ..",
    "..                                                                                                ..",
    "..                                                                                                ..",
    "..                                                                                                ..",
    "..                                                                                                ..",
    "..                                                                                                ..",
    "..                                                                                                ..",
    "..                                                                                                ..",
    "..                                                                                                ..",
    "..                                                                                                ..",
    "..                                                                                                ..",
    "..                                                                                                ..",
    "..                                                                                                ..",
    "..                                                                                                ..",
    "..                                                                                                ..",
    "..                                                                                                ..",
    "..                                                                                                ..",
    "..                                                                                                ..",
    "..                                                                                                ..",
    "..                                                                                                ..",
    "..                                                                                                ..",
    "..                                                                                                ..",
    "..                                                                                                ..",
    "..                                                                                                ..",
    "..                                                                                                ..",
    "..                                                                                                ..",
    "..                                                                                                ..",
    "..                                                                                                ..",
    "..                                                                                                ..",
    "..                                                                                                ..",
    "..                                                                                                ..",
    "..                                                                                                ..",
    "..                                                                                                ..",
    "..                                                                                                ..",
    "..                                                                                                ..",
    "..                                                                                                ..",
    "..                                                                                                ..",
    "..                                                                                                ..",
    "..                                                                                                ..",
    "..                                                                                                ..",
    "..                                                                                                ..",
    "..                                                                                                ..",
    "..                                                                                                ..",
    "....................................................................................................",
    "...................................................................................................."};
