/* XPM */
static char *circle[] = {
    "100 100 8 1",
    " 	c #FFFFFF",
    ".	c #FF0E6F",
    "+	c #000000",
    "@	c #FFC6D0",
    "#	c #FFA3B6",
    "$	c #FF4A7F",
    "%	c #FFE5E9",
    "&	c #FF7C9A",
    "++++++++++++++++++++++++++++++++++++++++++++++++++++++++++++++++++++++++++++++++++++++++++++++++++++",
    "++++++++++++++++++++++++++++++++++++++++++++++++++++++++++++++++++++++++++++++++++++++++++++++++++++",
    "++                                                                                                ++",
    "++                                                                                                ++",
    "++                                                                                                ++",
    "++                                                                                                ++",
    "++                                                                                                ++",
    "++                                                                                                ++",
    "++                                                                                                ++",
    "++                                                                                                ++",
    "++                                                                                                ++",
    "++                                                                                                ++",
    "++                                          %@@@###@@@@%                                          ++",
    "++                                     %@#$..............$#@%                                     ++",
    "++                                  %#$......................$#%                                  ++",
    "++                                @$............................$@                                ++",
    "++                              @$................................$@                              ++",
    "++                            @$....................................$@                            ++",
    "++                          %&........................................&%                          ++",
    "++                         @$..........................................$@                         ++",
    "++                        #.................$&##@@@###&$.................#                        ++",
    "++                       #...............#@%            %@#...............&                       ++",
    "++                      &.............&@                    @&.............&                      ++",
    "++                     &............&%                        %&............&                     ++",
    "++                    &...........$@                            @$...........&                    ++",
    "++                   &...........#                                #...........&                   ++",
    "++                  #...........@                                  @...........#                  ++",
    "++                 %..........$%                                    %$..........@                 ++",
    "++                %$.........$%                                      %$.........$%                ++",
    "++                &.........$%                                         $.........&                ++",
    "++               @.........$%                                          %$.........@               ++",
    "++               $.........%                                            %.........$               ++",
    "++              @.........@                                              @.........@              ++",
    "++              $........#                                                #........$              ++",
    "++             @........$                                                  $........@             ++",
    "++             $........@                                                  @........$             ++",
    "++            %........&                                                    &........%            ++",
    "++            #........%                                                    %........#            ++",
    "++            $.......&                                                      &.......$            ++",
    "++           %........@                                                      @........%           ++",
    "++           @........                                                        ........@           ++",
    "++           &.......#                                                        #.......&           ++",
    "++           $.......@                                                        @.......$           ++",
    "++           ........%                                                        %........           ++",
    "++          %.......$                                                          $.......%          ++",
    "++          @.......&                                                          &.......@          ++",
    "++          @.......#                                                          #.......@          ++",
    "++          @.......#                                                          #.......@          ++",
    "++          #.......@                                                          @.......#          ++",
    "++          #.......@                                                          @.......#          ++",
    "++          #.......@                                                          @.......#          ++",
    "++          @.......#                                                          #.......@          ++",
    "++          @.......#                                                          #.......#          ++",
    "++          @.......#                                                          #.......@          ++",
    "++          @.......&                                                          &.......@          ++",
    "++          %.......$                                                          $.......%          ++",
    "++           ........%                                                        %........           ++",
    "++           $.......@                                                        @.......$           ++",
    "++           #.......#                                                        #.......#           ++",
    "++           @........                                                        ........@           ++",
    "++           %........@                                                      @........%           ++",
    "++            $.......&                                                      &.......$            ++",
    "++            #........%                                                    %........#            ++",
    "++            %........&                                                    &........%            ++",
    "++             $........@                                                  @........$             ++",
    "++             @........$                                                  $........@             ++",
    "++              $........#                                                #........$              ++",
    "++              @.........@                                              @.........@              ++",
    "++               $.........%                                            %.........$               ++",
    "++               @.........$%                                          %$.........@               ++",
    "++                &.........$%                                        %$.........&                ++",
    "++                %$.........$%                                      %$.........$%                ++",
    "++                 %..........$%                                    %$..........@                 ++",
    "++                  #...........@                                  @...........#                  ++",
    "++                   #...........#                                #...........#                   ++",
    "++                    &...........$@                            @$...........&                    ++",
    "++                     &............&%                        %&............&                     ++",
    "++                      &.............&@                    @&.............&                      ++",
    "++                       &...............#@%            %@#...............#                       ++",
    "++                        #.................$&###@@###&$.................#                        ++",
    "++                         %$..........................................$@                         ++",
    "++                          %&........................................&%                          ++",
    "++                            @$....................................$@                            ++",
    "++                              @$................................$@                              ++",
    "++                                @$............................$@                                ++",
    "++                                  %#$......................$#%                                  ++",
    "++                                     %@&$..............$&@%                                     ++",
    "++                                          %@@#@###@@@%                                          ++",
    "++                                                                                                ++",
    "++                                                                                                ++",
    "++                                                                                                ++",
    "++                                                                                                ++",
    "++                                                                                                ++",
    "++                                                                                                ++",
    "++                                                                                                ++",
    "++                                                                                                ++",
    "++                                                                                                ++",
    "++                                                                                                ++",
    "++++++++++++++++++++++++++++++++++++++++++++++++++++++++++++++++++++++++++++++++++++++++++++++++++++",
    "++++++++++++++++++++++++++++++++++++++++++++++++++++++++++++++++++++++++++++++++++++++++++++++++++++"};
