/* XPM */
static char *circle[] = {
    /* columns rows colors chars-per-pixel */
    "100 100 32 1 ",
    "  c black",
    ". c #FF006D",
    "X c #FE2E76",
    "o c #486CF2",
    "O c #4B71F0",
    "+ c #4C72F1",
    "@ c #FF477D",
    "# c #5D7BEF",
    "$ c #FE5987",
    "% c #687FEE",
    "& c #FF7495",
    "* c #FF809E",
    "= c #8C9FF7",
    "- c #919FF2",
    "; c #FF8CA5",
    ": c #96A8F4",
    "> c #FF9AAD",
    ", c #FFAABC",
    "< c #FEB0BF",
    "1 c #BBC5F7",
    "2 c #FFBBC6",
    "3 c #FFC5CD",
    "4 c #FFCED9",
    "5 c #D8DEFB",
    "6 c #FFD7DF",
    "7 c #E8E9F9",
    "8 c #FFE6EA",
    "9 c #FFF4F4",
    "0 c #F7FBFE",
    "q c #FDFAFE",
    "w c #FFFBFA",
    "e c white",
    /* pixels */
    "                                                                                                    ",
    "                                                                                                    ",
    "  eeeeeeeeeeeeeeeeeeeeeeeeeeeeeeeeeeeeeeeeeeeeeeeeeeeeeeeeeeeeeeeeeeeeeeeeeeeeeeeeeeeeeeeeeeeeeeee  ",
    "  eeeeeeeeeeeeeeeeeeeeeeeeeeeeeeeeeeeeeeeeeeeeeeeeeeeeeeeeeeeeeeeeeeeeeeeeeeeeeeeeeeeeeeeeeeeeeeee  ",
    "  eeeeeeeeeeeeeeeeeeeeeeeeeeeeeeeeeeeeeeeeeeeeeeeeeeeeeeeeeeeeeeeeeeeeeeeeeeeeeeeeeeeeeeeeeeeeeeee  ",
    "  eeeeeeeeeeeeeeeeeeeeeeeeeeeeeeeeeeeeeeeeeeeeeeeeeeeeeeeeeeeeeeeeeeeeeeeeeeeeeeeeeeeeeeeeeeeeeeee  ",
    "  eeeeeeeeeeeeeeeeeeeeeeeeeeeeeeeeeeeeeeeeeeeeeeeeeeeeeeeeeeeeeeeeeeeeeeeeeeeeeeeeeeeeeeeeeeeeeeee  ",
    "  eeeeeeeeeeeeeeeeeeeeeeeeeeeeeeeeeeeeeeeeeeeeeeeeeeeeeeeeeeeeeeeeeeeeeeeeeeeeeeeeeeeeeeeeeeeeeeee  ",
    "  eeeeeeeeeeeeeeeeeeeeeeeeeeeeeeeeeeeeeeeeeeeeeeeeeeeeeeeeeeeeeeeeeeeeeeeeeeeeeeeeeeeeeeeeeeeeeeee  ",
    "  eeeeeeeeeeeeeeeeeeeeeeeeeeeeeeeeeeeeeeeeeeeeeeeeeeeeeeeeeeeeeeeeeeeeeeeeeeeeeeeeeeeeeeeeeeeeeeee  ",
    "  eeeeeeeeeeeeeeeeeeeeeeeeeeeeeeeeeeeeeeeeeeeeeeeeeeeeeeeeeeeeeeeeeeeeeeeeeeeeeeeeeeeeeeeeeeeeeeee  ",
    "  eeeeeeeeeeeeeeeeeeeeeeeeeeeeeeeeeeeeeeeeeeeeeeeeeeeeeeeeeeeeeeeeeeeeeeeeeeeeeeeeeeeeeeeeeeeeeeee  ",
    "  eeeeeeeeeeeeeeeeeeeeeeeeeeeeeeeeeeeeeeeee986322,,223689eeeeeeeeeeeeeeeeeeeeeeeeeeeeeeeeeeeeeeeee  ",
    "  eeeeeeeeeeeeeeeeeeeeeeeeeeeeeeeeeeeew82>@..............@>28weeeeeeeeeeeeeeeeeeeeeeeeeeeeeeeeeeee  ",
    "  eeeeeeeeeeeeeeeeeeeeeeeeeeeeeeeeew6,@X......X.X.........X..@,6eeeeeeeeeeeeeeeeeeeeeeeeeeeeeeeeee  ",
    "  eeeeeeeeeeeeeeeeeeeeeeeeeeeeeeew3$.....X.X.....X.X..X.X....X..$3weeeeeeeeeeeeeeeeeeeeeeeeeeeeeee  ",
    "  eeeeeeeeeeeeeeeeeeeeeeeeeeeeew2@XX..........................X...@2weeeeeeeeeeeeeeeeeeeeeeeeeeeee  ",
    "  eeeeeeeeeeeeeeeeeeeeeeeeeeew6$....X....X..X.......X.X....X........$6eeeeeeeeeeeeeeeeeeeeeeeeeeee  ",
    "  eeeeeeeeeeeeeeeeeeeeeeeeee9;..X....X....X..X..X.X.....X...X.X..X....;9weeeeeeeeeeeeeeeeeeeeeeeee  ",
    "  eeeeeeeeeeeeeeeeeeeeeeeee6@.........X.......X.......X..X.............@6eeeeeeeeeeeeeeeeeeeeeeeee  ",
    "  eeeeeeeeeeeeeeeeeeeeeeew,......X.X....X..XX&>,2232,>&X......X.....X....<weeeeeeeeeeeeeeeeeeeeeee  ",
    "  eeeeeeeeeeeeeeeeeeeeeew>....X.......X.X;380qq0q0qq0qq083>X...X..X.......>weeeeeeeeeeeeeeeeeeeeee  ",
    "  eeeeeeeeeeeeeeeeeeeee9*...X..X......&490qeeee0e00e0ee0qq0q4&..X.....X....*9eeeeeeeeeeeeeeeeeeeee  ",
    "  eeeeeeeeeeeeeeeeeee09&..X......X.X*60q0eeeeeeeeeeeeeeee0ewq06*..X.X..X....&9eeeeeeeeeeeeeeeeeeee  ",
    "  eeeeeeeeeeeeeeeeeeeq*.X....X....@4qe0eeeeeeeeeeeeeeeeeeeee00q04@........X..*weeeeeeeeeeeeeeeeeee  ",
    "  eeeeeeeeeeeeeeeeeeq;....X...X..>9q0eeeeeeeeeeeeeeeeeeeeeeeewee09>.X...X.....;weeeeeeeeeeeeeeeeee  ",
    "  eeeeeeeeeeeeeeeeee<......X...X4q0eeeeeeeeeeeeeeeeeeeeeeeeeeeeq0003X.X....X.X.,eeeeeeeeeeeeeeeeee  ",
    "  eeeeeeeeeeeeeeeee6..X.......@6q0eeeeeeeeeeeeeeeeeeeeeeeeeeeeeeee0q6@..X.....X.6eeeeeeeeeeeeeeeee  ",
    "  eeeeeeeeeeeeeeee8@...X.X..X$80eeeeeeeeeeeeeeeeeeeeeeeeeeeeeeeeeee008$..X.X....@9weeeeeeeeeeeeeee  ",
    "  eeeeeeeeeeeeeeee;XX.......$80eeeeeeeeeeeeeeeeeeeeeeeeeeeeeeeeeeeee008$......X..*0eeeeeeeeeeeeeee  ",
    "  eeeeeeeeeeeeeee4...X...X.@80eeeeeeeeeeeeeeeeeeeeeeeeeeeeeeeeeeeeeee008@.......X.6weeeeeeeeeeeeee  ",
    "  eeeeeeeeeeeeeeq$.....X..X60eeeeeeeeeeeeeeeeeeeeeeeeeeeeeeeeeeeeeeeee008X.X.....X@qeeeeeeeeeeeeee  ",
    "  eeeeeeeeeeeeew2....X...X30eeeeeeeeeeeeeeeeeeeeeeeeeeeeeeeeeeeeeeeeeeeq03...X.....2eeeeeeeeeeeeee  ",
    "  eeeeeeeeeeeeeq@X.X.....>qeeeeeeeeeeeeeeeeeeeeeeeeeeeeeeeeeeeeeeeeeeeeee0>X.....X.@weeeeeeeeeeeee  ",
    "  eeeeeeeeeeeew3......XX@90eeeeeeeeeeeeeeeeeeeeeeeeeeeeeeeeeeeeeeeeeeeeeeq9$.X......2eeeeeeeeeeeee  ",
    "  eeeeeeeeeeeeq$.X..X...30eeeeeeeeeeeeeeeeeeeeeeeeeeeeeeeeeeeeeeeeeeeeeeeeq4..X..X..$weeeeeeeeeeee  ",
    "  eeeeeeeeeeee6...X....*0eeeeeeeeeeeeeeeeeeeeeeeeeeeeeeeeeeeeeeeeeeeeeeeeeq0&........6eeeeeeeeeeee  ",
    "  eeeeeeeeeeee,X.....X.6eeeeeeeeeeeeeeeeeeeeeeeeeeeeeeeeeeeeeeeeeeeeeeeeeeee6.X...X.X,eeeeeeeeeeee  ",
    "  eeeeeeeeeeeq@.X..X..&0eeeeeeeeeeeeeeeeeeeeeeeeeeeeeeeeeeeeeeeeeeeeeeeeeee00&..X....@weeeeeeeeeee  ",
    "  eeeeeeeeee08.......X3eeeeeeeeeeeeeeeeeeeeeeeeeeeeeeeeeeeeeeeeeeeeeeeeeeeee03X...X...8eeeeeeeeeee  ",
    "  eeeeeeeeeeq3..X....X9eeeeeeeeeeeeeeeeeeeeeeeeeeeeeeeeeeeeeeeeeeeeeeeeeeeee09X....X..2eeeeeeeeeee  ",
    "  eeeeeeeeeeq;X...X..>0eeeeeeeeeeeeeeeeeeeeeeeeeeeeeeeeeeeeeeeeeeeeeeeeeeeeeeq;.X.....>eeeeeeeeeee  ",
    "  eeeeeeeeeeq@..X....30eeeeeeeeeeeeeeeeeeeeeeeeeeeeeeeeeeeeeeeeeeeeeeeeeeeeee03..X....@eeeeeeeeeee  ",
    "  eeeeeeeee09.X...X..8eeeeeeeeeeeeeeeeeeeeeeeeeeeeeeeeeeeeeeeeeeeeeeeeeeeeeee08....X...9eeeeeeeeee  ",
    "  eeeeeeeee08.......Xqeeeeeeeeeeeeeeeeeeeeeeeeeeeeeeeeeeeeeeeeeeeeeeeeeeeeeeeq0X.......8eeeeeeeeee  ",
    "  eeeeeeeee04.X.X..X&eeeeeeeeeeeeeeeeeeeeeeeeeeeeeeeeeeeeeeeeeeeeeeeeeeeeeeeee0&X...X..4eeeeeeeeee  ",
    "  eeeeeeeee03....X..>0eeeeeeeeeeeeeeeeeeeeeeeeeeeeeeeeeeeeeeeeeeeeeeeeeeeeeeee0>..X..X.2eeeeeeeeee  ",
    "  eeeeeeeee02......X,eeeeeeeeeeeeeeeeeeeeeeeeeeeeeeeeeeeeeeeeeeeeeeeeeeeeeeeee0,X.....X2eeeeeeeeee  ",
    "  eeeeeeeee02.X.....2eeeeeeeeeeeeeeeeeeeeeeeeeeeeeeeeeeeeeeeeeeeeeeeeeeeeeeeeeq<...X...<eeeeeeeeee  ",
    "  eeeeeeeee0,......X2eeeeeeeeeeeeeeeeeeeeeeeeeeeeeeeeeeeeeeeeeeeeeeeeeeeeeeeeeq3.X....X,eeeeeeeeee  ",
    "  eeeeeeeee0<..X....2eeeeeeeeeeeeeeeeeeeeeeeeeeeeeeeeeeeeeeeeeeeeeeeeeeeeeeeeeq2.......,eeeeeeeeee  ",
    "  eeeeeeeee0<X..X...2eeeeeeeeeeeeeeeeeeeeeeeeeeeeeeeeeeeeeeeeeeeeeeeeeeeeeeeee02.X.X...<eeeeeeeeee  ",
    "  eeeeeeeee02.......,eeeeeeeeeeeeeeeeeeeeeeeeeeeeeeeeeeeeeeeeeeeeeeeeeeeeeeeeeq,.....X.2eeeeeeeeee  ",
    "  eeeeeeeeeq3X..X.X.>eeeeeeeeeeeeeeeeeeeeeeeeeeeeeeeeeeeeeeeeeeeeeeeeeeeeeeeee0>...X..X3eeeeeeeeee  ",
    "  eeeeeeeeeq4......X&eeeeeeeeeeeeeeeeeeeeeeeeeeeeeeeeeeeeeeeeeeeeeeeeeeeeeeeee0&X......6weeeeeeeee  ",
    "  eeeeeeeee08X..X...XweeeeeeeeeeeeeeeeeeeeeeeeeeeeeeeeeeeeeeeeeeeeeeeeeeeeeeeeqX...X...80eeeeeeeee  ",
    "  eeeeeeeeeq9....X..X8eeeeeeeeeeeeeeeeeeeeeeeeeeeeeeeeeeeeeeeeeeeeeeeeeeeeeeee8..X.....9eeeeeeeeee  ",
    "  eeeeeeeee0q$.......3eeeeeeeeeeeeeeeeeeeeeeeeeeeeeeeeeeeeeeeeeeeeeeeeeeeeeeeq4.....X.@0eeeeeeeeee  ",
    "  eeeeeeeeeqq>....X..>weeeeeeeeeeeeeeeeeeeeeeeeeeeeeeeeeeeeeeeeeeeeeeeeeeeeeeq;X..X...;0eeeeeeeeee  ",
    "  eeeeeeeeeeq2X.X....Xqeeeeeeeeeeeeeeeeeeeeeeeeeeeeeeeeeeeeeeeeeeeeeeeeeeeeee9X.....X.2eeeeeeeeeee  ",
    "  eeeeeeeeeeq6........3eeeeeeeeeeeeeeeeeeeeeeeeeeeeeeeeeeeeeeeeeeeeeeeeeeeee03..X....X8weeeeeeeeee  ",
    "  eeeeeeeeee00@.X.X...&eeeeeeeeeeeeeeeeeeeeeeeeeeeeeeeeeeeeeeeeeeeeeeeeeeeee0&X......@qeeeeeeeeeee  ",
    "  eeeeeeeeeee0,......X.6eeeeeeeeeeeeeeeeeeeeeeeeeeeeeeeeeeeeeeeeeeeeeeeeeeee6....X...,weeeeeeeeeee  ",
    "  eeeeeeeeeee06....X...*eeeeeeeeeeeeeeeeeeeeeeeeeeeeeeeeeeeeeeeeeeeeeeeeeee0*..X...X.60eeeeeeeeeee  ",
    "  eeeeeeeeeee00$X.......4eeeeeeeeeeeeeeeeeeeeeeeeeeeeeeeeeeeeeeeeeeeeeeeeee4........$weeeeeeeeeeee  ",
    "  eeeeeeeeeeee03.X.X.X..@9eeeeeeeeeeeeeeeeeeeeeeeeeeeeeeeeeeeeeeeeeeeeeeee9@XX.X.X..30eeeeeeeeeeee  ",
    "  eeeeeeeeeeeeqq@.....X..>0eeeeeeeeeeeeeeeeeeeeeeeeeeeeeeeeeeeeeeeeeeeeee0>.......X@90eeeeeeeeeeee  ",
    "  eeeeeeeeeeeeeq2......X..3eeeeeeeeeeeeeeeeeeeeeeeeeeeeeeeeeeeeeeeeeeeeee3X..X.....<qeeeeeeeeeeeee  ",
    "  eeeeeeeeeeeeeqq$X.X...X.X8eeeeeeeeeeeeeeeeeeeeeeeeeeeeeeeeeeeeeeeeeeee8X....X.X.$qeeeeeeeeeeeeee  ",
    "  eeeeeeeeeeeeeeq4.........@8eeeeeeeeeeeeeeeeeeeeeeeeeeeeeeeeeeeeeeeeee8@.........4weeeeeeeeeeeeee  ",
    "  eeeeeeeeeeeeee00;...X....X$9weeeeeeeeeeeeeeeeeeeeeeeeeeeeeeeeeeeeeee9$..X.X...X;weeeeeeeeeeeeeee  ",
    "  eeeeeeeeeeeeeee08@X....X...$8eeeeeeeeeeeeeeeeeeeeeeeeeeeeeeeeeeeee08$.......X.@8eeeeeeeeeeeeeeee  ",
    "  eeeeeeeeeeeeeee0q6...X.....X@8eeeeeeeeeeeeeeeeeeeeeeeeeeeeeeeeeeee8@X.X...X...60eeeeeeeeeeeeeeee  ",
    "  eeeeeeeeeeeeeeeeeq<..........X3eeeeeeeeeeeeeeeeeeeeeeeeeeeeeeeeee3X.....X....,0eeeeeeeeeeeeeeeee  ",
    "  eeeeeeeeeeeeeeee0q0>...X.......>9eeeeeeeeeeeeeeeeeeeeeeeeeeeeee9>X..X......X;0eeeeeeeeeeeeeeeeee  ",
    "  eeeeeeeeeeeeeeeeee09*X..X..X....$4eeeeeeeeeeeeeeeeeeeeeeeeeeee4$..X...X..X.*qeeeeeeeeeeeeeeeeeee  ",
    "  eeeeeeeeeeeeeeeeee0q9&......X.....*6eeeeeeeeeeeeeeeeeeeeeeee6&.........X..&qeeeeeeeeeeeeeeeeeeee  ",
    "  eeeeeeeeeeeeeeeeeee0qq*..X...X......&39eeeeeeeeeeeeeeeeee93&.X.X..X.X....*9weeeeeeeeeeeeeeeeeeee  ",
    "  eeeeeeeeeeeeeeeeeeeeq0q>........X.....X>28weeeeeeeeeew83>X...........X..>qqeeeeeeeeeeeeeeeeeeeee  ",
    "  eeeeeeeeeeeeeeeeeeeeee0q,.X...X...X.X....XX&>,2222,>&@.....X...X..X....<qqeeeeeeeeeeeeeeeeeeeeee  ",
    "  eeeeeeeeeeeeeeeeeeeeeeq004@.X..........X......X.........X..........X.@6qeeeeeeeeeeeeeeeeeeeeeeee  ",
    "  eeeeeeeeeeeeeeeeeeeeeeeee08;..X...X.X.....X.X..X..X..X...X..X...X...;8qeeeeeeeeeeeeeeeeeeeeeeeee  ",
    "  eeeeeeeeeeeeeeeeeeeeeeeee0q04$.X........X.......X............X...X$400eeeeeeeeeeeeeeeeeeeeeeeeee  ",
    "  eeeeeeeeeeeeeeeeeeeeeeeeee0e09<@.....X................X..X.X....@<9qeeeeeeeeeeeeeeeeeeeeeeeeeeee  ",
    "  eeeeeeeeeeeeeeeeeeeeeeeeeeeeq0qq3$X...X..X..X....X.X.........X$2qq0eeeeeeeeeeeeeeeeeeeeeeeeeeeee  ",
    "  eeeeeeeeeeeeeeeeeeeeeeeeeeeeee0qqq6,@.........X........X...@,6q0qeeeeeeeeeeeeeeeeeeeeeeeeeeeeeee  ",
    "  eeeeeeeeeeeeeeeeeeeeeeeeeeeeeee0e0qq082;@X.....X.X.X.X.@;36q00eeeeeeeeeeeeeeeeeeeeeeeeeeeeeeeeee  ",
    "  eeeeeeeeeeeeeeeeeeeeeeeeeeeeeeeeeeeeqq00q98442<,,<22669q0q0qeeeeeeeeeeeeeeeeeeeeeeeeeeeeeeeeeeee  ",
    "  eeeeeeeeeeeeeeeeeeeeeeeeeeeeeeeeeeee0eeqq00qq0qqqq0q00000eeeeeeeeeeeeeeeeeeeeeeeeeeeeeeeeeeeeeee  ",
    "  eeeeeeeeeeeeeeeeeeeeeeeeeeeeeeeeeeeeeeeeee0eeeeeeeeeeeeeeeeeeeeeeeeeeeeeeeeeeeeeeeeeeeeeeeeeeeee  ",
    "  eeeeeeeeeeeeeeeeeeeeeeeeeeeeeeeeeeeeeeeeeeeeeeeeeeeeeeeeeeeeeeeeeeeeeeeeeeeeeeeeeeeeeeeeeeeeeeee  ",
    "  eeeeeeeeeeeeeeeeeeeeeeeeeeeeeeeeeeeeeeeeeeeeeeeeeeeeeeeeeeeeeeeeeeeeeeeeeeeeeeeeeeeeeeeeeeeeeeee  ",
    "  eeeeeeeeeeeeeeeeeeeeeeeeeeeeeeeeeeeeeeeeeeeeeeeeeeeeeeeeeeeeeeeeeeeeeeeeeeeeeeeeeeeeeeeeeeeeeeee  ",
    "  eeeeeeeeeeeeeeeeeeeeeeeeeeeeeeeeeeeeeeeeeeeeeeeeeeeeeeeeeeeeeeeeeeeeeeeeeeeeeeeeeeeeeeeeeeeeeeee  ",
    "  eeeeeeeeeeeeeeeeeeeeeeeeeeeeeeeeeeeeeeeeeeeeeeeeeeeeeeeeeeeeeeeeeeeeeeeeeeeeeeeeeeeeeeeeeeeeeeee  ",
    "  eeeeeeeeeeeeeeeeeeeeeeeeeeeeeeeeeeeeeeeeeeeeeeeeeeeeeeeeeeeeeeeeeeeeeeeeeeeeeeeeeeeeeeeeeeeeeeee  ",
    "  eeeeeeeeeeeeeeeeeeeeeeeeeeeeeeeeeeeeeeeeeeeeeeeeeeeeeeeeeeeeeeeeeeeeeeeeeeeeeeeeeeeeeeeeeeeeeeee  ",
    "  eeeeeeeeeeeeeeeeeeeeeeeeeeeeeeeeeeeeeeeeeeeeeeeeeeeeeeeeeeeeeeeeeeeeeeeeeeeeeeeeeeeeeeeeeeeeeeee  ",
    "                                                                                                    ",
    "                                                                                                    "};
