/* XPM */
static char *cross[] = {
    /* columns rows colors chars-per-pixel */
    "100 100 32 1 ",
    "  c black",
    ". c #FF006D",
    "X c #FE2E76",
    "o c #486CF2",
    "O c #4B71F0",
    "+ c #4C72F1",
    "@ c #FF477D",
    "# c #5D7BEF",
    "$ c #FE5987",
    "% c #687FEE",
    "& c #FF7495",
    "* c #FF809E",
    "= c #8C9FF7",
    "- c #919FF2",
    "; c #FF8CA5",
    ": c #96A8F4",
    "> c #FF9AAD",
    ", c #FFAABC",
    "< c #FEB0BF",
    "1 c #BBC5F7",
    "2 c #FFBBC6",
    "3 c #FFC5CD",
    "4 c #FFCED9",
    "5 c #D8DEFB",
    "6 c #FFD7DF",
    "7 c #E8E9F9",
    "8 c #FFE6EA",
    "9 c #FFF4F4",
    "0 c #F7FBFE",
    "q c #FDFAFE",
    "w c #FFFBFA",
    "e c white",
    /* pixels */
    "                                                                                                    ",
    "                                                                                                    ",
    "  eeeeeeeeeeeeeeeeeeeeeeeeeeeeeeeeeeeeeeeeeeeeeeeeeeeeeeeeeeeeeeeeeeeeeeeeeeeeeeeeeeeeeeeeeeeeeeee  ",
    "  eeeeeeeeeeeeeeeeeeeeeeeeeeeeeeeeeeeeeeeeeeeeeeeeeeeeeeeeeeeeeeeeeeeeeeeeeeeeeeeeeeeeeeeeeeeeeeee  ",
    "  eeeeeeeeeeeeeeeeeeeeeeeeeeeeeeeeeeeeeeeeeeeeeeeeeeeeeeeeeeeeeeeeeeeeeeeeeeeeeeeeeeeeeeeeeeeeeeee  ",
    "  eeeeeeeeeeeeeeeeeeeeeeeeeeeeeeeeeeeeeeeeeeeeeeeeeeeeeeeeeeeeeeeeeeeeeeeeeeeeeeeeeeeeeeeeeeeeeeee  ",
    "  eeeeeeeeeeeeeeeeeeeeeeeeeeeeeeeeeeeeeeeeeeeeeeeeeeeeeeeeeeeeeeeeeeeeeeeeeeeeeeeeeeeeeeeeeeeeeeee  ",
    "  eeeeeeeeeeeeeeeeeeeeeeeeeeeeeeeeeeeeeeeeeeeeeeeeeeeeeeeeeeeeeeeeeeeeeeeeeeeeeeeeeeeeeeeeeeeeeeee  ",
    "  eeeeeeeeeeeeeeeeeeeeeeeeeeeeeeeeeeeeeeeeeeeeeeeeeeeeeeeeeeeeeeeeeeeeeeeeeeeeeeeeeeeeeeeeeeeeeeee  ",
    "  eeeeeeeeeeeeeeeeeeeeeeeeeeeeeeeeeeeeeeeeeeeeeeeeeeeeeeeeeeeeeeeeeeeeeeeeeeeeeeeeeeeeeeeeeeeeeeee  ",
    "  eeeeeeeeeeeeeeeeeeeeeeeeeeeeeeeeeeeeeeeeeeeeeeeeeeeeeeeeeeeeeeeeeeeeeeeeeeeeeeeeeeeeeeeeeeeeeeee  ",
    "  eeeeeeeeeeeeeeeeeeeeeeeeeeeeeeeeeeeeeeeeeeeeeeeeeeeeeeeeeeeeeeeeeeeeeeeeeeeeeeeeeeeeeeeeeeeeeeee  ",
    "  eeeeeeeeeeeeeeeeeeeeeeeeeeeeeeeeeeeeeeeeeeeeeeeeeeeeeeeeeeeeeeeeeeeeeeeeeeeeeeeeeeeeeeeeeeeeeeee  ",
    "  eeeeeeeeeeeeeeeeee0eeeeeeeeeeeeeeeeeeeeeeeeeeeeeeeeeeeeeeeeeeeeeeeeeeeeeeeeeee0eeeeeeeeeeeeeeeee  ",
    "  eeeeeeeeeeeeeeeee7#5eeeeeeeeeeeeeeeeeeeeeeeeeeeeeeeeeeeeeeeeeeeeeeeeeeeeeeeee5%7eeeeeeeeeeeeeeee  ",
    "  eeeeeeeeeeeeeee07#O+5eeeeeeeeeeeeeeeeeeeeeeeeeeeeeeeeeeeeeeeeeeeeeeeeeeeeeee5+o#7eeeeeeeeeeeeeee  ",
    "  eeeeeeeeeeeeeee7#oOO+5eeeeeeeeeeeeeeeeeeeeeeeeeeeeeeeeeeeeeeeeeeeeeeeeeeeee5+Ooo#7eeeeeeeeeeeeee  ",
    "  eeeeeeeeeeeee07#oOOoO+5eeeeeeeeeeeeeeeeeeeeeeeeeeeeeeeeeeeeeeeeeeeeeeeeeee5OOOOOo#7eeeeeeeeeeeee  ",
    "  eeeeeeeeeeeee7#oooOOOOO5eeeeeeeeeeeeeeeeeeeeeeeeeeeeeeeeeeeeeeeeeeeeeeeee5OOoooOoo#7eeeeeeeeeeee  ",
    "  eeeeeeeeeee07#oOOoOoooO+5eeeeeeeeeeeeeeeeeeeeeeeeeeeeeeeeeeeeeeeeeeeeeew5#oOOOOOOOo#7eeeeeeeeeee  ",
    "  eeeeeeeeeee0-ooOOoOOOOoO+5eeeeeeeeeeeeeeeeeeeeeeeeeeeeeeeeeeeeeeeeeeee05OooOoOoooOoo:eeeeeeeeeee  ",
    "  eeeeeeeeeeew0-OoOooOoOoOO+5eeeeeeeeeeeeeeeeeeeeeeeeeeeeeeeeeeeeeeeeeee5OOoOoOoOOOOO-qeeeeeeeeeee  ",
    "  eeeeeeeeeeeeeq-OoOoOoOoOOOO5eeeeeeeeeeeeeeeeeeeeeeeeeeeeeeeeeeeeeeeee5OOoOoooOoooo=qeeeeeeeeeeee  ",
    "  eeeeeeeeeeeew09-oOoOoOoOooO+5eeeeeeeeeeeeeeeeeeeeeeeeeeeeeeeeeeeeeee5OOoOoOOoooOO-weeeeeeeeeeeee  ",
    "  eeeeeeeeeee0e09q-oOooOoOOOoOO5eeeeeeeeeeeeeeeeeeeeeeeeeeeeeeeeeeeee5OOoOOOoOoOoo-0weeeeeeeeeeeee  ",
    "  eeeeeeeeeeeeee0w7-OOoOoOoOoOO+5eeeeeeeeeeeeeeeeeeeeeeeeeeeeeeeeeee5OoOoOoOOoOOO-00eeeeeeeeeeeeee  ",
    "  eeeeeeeeeeeeeeew99-oOooOoOoOOOO5eeeeeeeeeeeeeeeeeeeeeeeeeeeeeeeee5OOOOoOOoOOoo-0weeeeeeeeeeeeeee  ",
    "  eeeeeeeeeeeeeeeeew7-OOoOoOoOooO+5eeeeeeeeeeeeeeeeeeeeeeeeeeeeeew5OOoOOooooOOo-0weeeeeeeeeeeeeeee  ",
    "  eeeeeeeeeeeeeeeeee99-oOooOoOOOoOO5eeeeeeeeeeeeeeeeeeeeeeeeeeeee5OOoOoOoOoOoO-7weeeeeeeeeeeeeeeee  ",
    "  eeeeeeeeeeeeeeeeeeew7-OOoOoOoOoOO+5eeeeeeeeeeeeeeeeeeeeeeeeeew5OOoOOooOOoOo-weeeeeeeeeeeeeeeeeee  ",
    "  eeeeeeeeeeeeeeeeeeew99-oOooOoOoOOOO5eeeeeeeeeeeeeeeeeeeeeeeee5OOoOOooOOoOO-7weeeeeeeeeeeeeeeeeee  ",
    "  eeeeeeeeeeeeeeeeeeeeew7-OOoOoOoOooO+5eeeeeeeeeeeeeeeeeeeeeew5OOOoOoOOooOo-9eeeeeeeeeeeeeeeeeeeee  ",
    "  eeeeeeeeeeeeeeeeeeeeew99-oOooOoOOOoOO5eeeeeeeeeeeeeeeeeeeee5OOoOooOoOOoO-7eweeeeeeeeeeeeeeeeeeee  ",
    "  eeeeeeeeeeeeeeeeeeeeeeew7-OOoOoOoOoOO+5eeeeeeeeeeeeeeeeeee5OoOOoOOoOoOo-9eeeeeeeeeeeeeeeeeeeeeee  ",
    "  eeeeeeeeeeeeeeeeeeeeeeee99-oOooOoOoOOOO5eeeeeeeeeeeeeeeee5OOOoOoOoOOOo-90eeeeeeeeeeeeeeeeeeeeeee  ",
    "  eeeeeeeeeeeeeeeeeeeeeeeeew7-OOoOoOoOooO+5eeeeeeeeeeeeee97OoOOooOoOooo-weeeeeeeeeeeeeeeeeeeeeeeee  ",
    "  eeeeeeeeeeeeeeeeeeeeeeeeee99-oOooOoOOOoOO5eeeeeeeeeeee05OOOOoOOOoOOO-90weeeeeeeeeeeeeeeeeeeeeeee  ",
    "  eeeeeeeeeeeeeeeeeeeeeeeeeeew7-OOoOoOoOoOO+5eeeeeeeeeee5OoOoOooOoOoo-90eeeeeeeeeeeeeeeeeeeeeeeeee  ",
    "  eeeeeeeeeeeeeeeeeeeeeeeeeeew99-oOooOoOoOOOO5eeeeeeeee5OoOOooOOoOOO-7wweeeeeeeeeeeeeeeeeeeeeeeeee  ",
    "  eeeeeeeeeeeeeeeeeeeeeeeeeeeeew7-OOoOoOoOooO+5eeeeeew5OOOoOOoOOooo-9eeeeeeeeeeeeeeeeeeeeeeeeeeeee  ",
    "  eeeeeeeeeeeeeeeeeeeeeeeeeeeeew99-oOooOoOOOoOO5eeeee5OOoOooOoOoOO-90weeeeeeeeeeeeeeeeeeeeeeeeeeee  ",
    "  eeeeeeeeeeeeeeeeeeeeeeeeeeeeeeew7-OOoOoOoOoOO+5eew5OOOoOoOoOOoo-90eeeeeeeeeeeeeeeeeeeeeeeeeeeeee  ",
    "  eeeeeeeeeeeeeeeeeeeeeeeeeeeeeeee99-oOooOoOoOOOO5e5OOOoOoOOoOoO-7weeeeeeeeeeeeeeeeeeeeeeeeeeeeeee  ",
    "  eeeeeeeeeeeeeeeeeeeeeeeeeeeeeeeeew7-OOoOoOoOooOO1OOoOooOOoOoo-9eeeeeeeeeeeeeeeeeeeeeeeeeeeeeeeee  ",
    "  eeeeeeeeeeeeeeeeeeeeeeeeeeeeeeeeee99-oOooOoOOOoOoOoOoOOoOOOo-90eeeeeeeeeeeeeeeeeeeeeeeeeeeeeeeee  ",
    "  eeeeeeeeeeeeeeeeeeeeeeeeeeeeeeeeeeew7-OOooOooOoOoOOoOOoOooO-wweeeeeeeeeeeeeeeeeeeeeeeeeeeeeeeeee  ",
    "  eeeeeeeeeeeeeeeeeeeeeeeeeeeeeeeeeeew99-oOOoOoOoOoOooOoOOOo-7wweeeeeeeeeeeeeeeeeeeeeeeeeeeeeeeeee  ",
    "  eeeeeeeeeeeeeeeeeeeeeeeeeeeeeeeeeeeeew7-oOoOoOoOOoOOoOooO-9eeeeeeeeeeeeeeeeeeeeeeeeeeeeeeeeeeeee  ",
    "  eeeeeeeeeeeeeeeeeeeeeeeeeeeeeeeeeeeeeew9-oOoOoOOooOoOOOo-9wweeeeeeeeeeeeeeeeeeeeeeeeeeeeeeeeeeee  ",
    "  eeeeeeeeeeeeeeeeeeeeeeeeeeeeeeeeeeeeeww09-OOOooOoOOOooO-90eeeeeeeeeeeeeeeeeeeeeeeeeeeeeeeeeeeeee  ",
    "  eeeeeeeeeeeeeeeeeeeeeeeeeeeeeeeeeeeeeee095ooooOoOooOOoo5wweeeeeeeeeeeeeeeeeeeeeeeeeeeeeeeeeeeeee  ",
    "  eeeeeeeeeeeeeeeeeeeeeeeeeeeeeeeeeeeeeeww5OoOOOoOOOoOoOoO5eeeeeeeeeeeeeeeeeeeeeeeeeeeeeeeeeeeeeee  ",
    "  eeeeeeeeeeeeeeeeeeeeeeeeeeeeeeeeeeeeeee5OOOooOoOoOoOOOoOO5eeeeeeeeeeeeeeeeeeeeeeeeeeeeeeeeeeeeee  ",
    "  eeeeeeeeeeeeeeeeeeeeeeeeeeeeeeeeeeeeew5OOoOOOoOoOoOooOoOOO5eeeeeeeeeeeeeeeeeeeeeeeeeeeeeeeeeeeee  ",
    "  eeeeeeeeeeeeeeeeeeeeeeeeeeeeeeeeeeeee5OOOooOoOOOOoOoOOooOOO5eeeeeeeeeeeeeeeeeeeeeeeeeeeeeeeeeeee  ",
    "  eeeeeeeeeeeeeeeeeeeeeeeeeeeeeeeeeeew5OOoOOOOoOoOoOoOoOoOOOOO5eeeeeeeeeeeeeeeeeeeeeeeeeeeeeeeeeee  ",
    "  eeeeeeeeeeeeeeeeeeeeeeeeeeeeeeeeeee5OOOooooOoOoOOOOooOoooOOOO5eeeeeeeeeeeeeeeeeeeeeeeeeeeeeeeeee  ",
    "  eeeeeeeeeeeeeeeeeeeeeeeeeeeeeeeeew5OOOoOOOOoOOo-8-OoOOOOoOOOOO5eeeeeeeeeeeeeeeeeeeeeeeeeeeeeeeee  ",
    "  eeeeeeeeeeeeeeeeeeeeeeeeeeeeeeeee5OOoOoOoOoOOo-999-OoOoooooOOOO5eeeeeeeeeeeeeeeeeeeeeeeeeeeeeeee  ",
    "  eeeeeeeeeeeeeeeeeeeeeeeeeeeeeeew5OOOooOoOoOoo-9w099-oOOOoOoOoOOO5eeeeeeeeeeeeeeeeeeeeeeeeeeeeeee  ",
    "  eeeeeeeeeeeeeeeeeeeeeeeeeeeeeee5OOoOoOOOOoOO-9900ww9-oOoOoOooOOOO5eeeeeeeeeeeeeeeeeeeeeeeeeeeeee  ",
    "  eeeeeeeeeeeeeeeeeeeeeeeeeeeeew5OOOoOoOooOoo-q00www099-oOOoOOoOoOOO5eeeeeeeeeeeeeeeeeeeeeeeeeeeee  ",
    "  eeeeeeeeeeeeeeeeeeeeeeeeeeeee5OOOOooOOOOOO-9wweeww00w9-oOoOooOoOOOO5eeeeeeeeeeeeeeeeeeeeeeeeeeee  ",
    "  eeeeeeeeeeeeeeeeeeeeeeeeeeew5#oOoOOOooooo-9w00ee0wwww09-OoOOooOooOOO5eeeeeeeeeeeeeeeeeeeeeeeeeee  ",
    "  eeeeeeeeeeeeeeeeeeeeeeeeeee5OOoOoooOOOOO-7weeeeee0ewwww9-oOoOOoOOooOO5eeeeeeeeeeeeeeeeeeeeeeeeee  ",
    "  eeeeeeeeeeeeeeeeeeeeeeeeee5OoOooOOOoooo-9eeeeeeeeee0w0w79-OOoOoOoOoOOO5eeeeeeeeeeeeeeeeeeeeeeeee  ",
    "  eeeeeeeeeeeeeeeeeeeeeeeee5OOOOoOooOOOO-9wweeeeeeeee0ew0ww9-oOoOoOoOoOOO5weeeeeeeeeeeeeeeeeeeeeee  ",
    "  eeeeeeeeeeeeeeeeeeeeeeew5OOoOoOOOOooo-90eeeeeeeeeeeeeewww09-oOOoOoOoOoOO5eeeeeeeeeeeeeeeeeeeeeee  ",
    "  eeeeeeeeeeeeeeeeeeeeeee5OOOOooOooOOO-7weeeeeeeeeeeeeeeeeww99-oOOoOooOoOoO5eeeeeeeeeeeeeeeeeeeeee  ",
    "  eeeeeeeeeeeeeeeeeeeeew5#oOoOOoOOooo-9eeeeeeeeeeeeeeeeeeew0099-oOoOoOoOoOOO5eeeeeeeeeeeeeeeeeeeee  ",
    "  eeeeeeeeeeeeeeeeeeeee5OOoOooOoOoOO-9wweeeeeeeeeeeeeeeee0ee0099-oOoOoOoOoOoO5eeeeeeeeeeeeeeeeeeee  ",
    "  eeeeeeeeeeeeeeeeeeew5OoOoOOOoOOoO-90eeeeeeeeeeeeeeeeeeeeeewww09-OOOooOoOoOOO5eeeeeeeeeeeeeeeeeee  ",
    "  eeeeeeeeeeeeeeeeeee5OOOOooOoOoOo-7weeeeeeeeeeeeeeeeeeeeee0eeww99-ooOOoOoOooOO5eeeeeeeeeeeeeeeeee  ",
    "  eeeeeeeeeeeeeeeeew5#oOoOoOoOOoO-9eeeeeeeeeeeeeeeeeeeeeeeeee0w0w09-oOOoOoOoOoOO5eeeeeeeeeeeeeeeee  ",
    "  eeeeeeeeeeeeeeeee5OOoOooOOoOoO-7weeeeeeeeeeeeeeeeeeeeeeeeee0e0www9-ooOOoOoOoOoO5eeeeeeeeeeeeeeee  ",
    "  eeeeeeeeeeeeeeew5OoOoOOoOoOoo-9eeeeeeeeeeeeeeeeeeeeeeeeeeeeeee0www9-OoOoOoOoOOOO5eeeeeeeeeeeeeee  ",
    "  eeeeeeeeeeeeeee5OOOOooOOOOOo-9wweeeeeeeeeeeeeeeeeeeeeeeeeeeeee0e0w99-oOOoOoOooOoO5eeeeeeeeeeeeee  ",
    "  eeeeeeeeeeeeew5OOOoOoOooooO-qeeeeeeeeeeeeeeeeeeeeeeeeeeeeeeeeeeeew099-OOoOoOoOoOOO5eeeeeeeeeeeee  ",
    "  eeeeeeeeeeeee5OOoOooOOOOOo-9wweeeeeeeeeeeeeeeeeeeeeeeeeeeeeeeeee0e0099-oOoOoOOoOOoO5eeeeeeeeeeee  ",
    "  eeeeeeeeeeew5OOOoOOOooooO-90eeeeeeeeeeeeeeeeeeeeeeeeeeeeeeeeeeeeeeeww09-OoOoOoOooOOO5eeeeeeeeeee  ",
    "  eeeeeeeeeee7OOOOoooOOOOO-7wweeeeeeeeeeeeeeeeeeeeeeeeeeeeeeeeeeeeee00e099-oOoooOOoOoOO7eeeeeeeeee  ",
    "  eeeeeeeeeew91OoOOOOoooo-9eeeeeeeeeeeeeeeeeeeeeeeeeeeeeeeeeeeeeeeeeeeewww9-OOOooOOoOo1eeeeeeeeeee  ",
    "  eeeeeeeeeeee91ooooOOOO-9wweeeeeeeeeeeeeeeeeeeeeeeeeeeeeeeeeeeeeeeeeee00w99-ooOoooOO1weeeeeeeeeee  ",
    "  eeeeeeeeeeeww81OOOooo-qeeeeeeeeeeeeeeeeeeeeeeeeeeeeeeeeeeeeeeeeeeeeeeee0w09-oOOoOo1w0eeeeeeeeeee  ",
    "  eeeeeeeeeeeeew91oOOO-9wweeeeeeeeeeeeeeeeeeeeeeeeeeeeeeeeeeeeeeeeeeeeeee0ewww-oOoO1weeeeeeeeeeeee  ",
    "  eeeeeeeeeeeeww981oo-9w00eeeeeeeeeeeeeeeeeeeeeeeeeeeeeeeeeeeeeeeeeeeeeeee0www9-oO1w0eeeeeeeeeeeee  ",
    "  eeeeeeeeeeeeeew991-7weeeeeeeeeeeeeeeeeeeeeeeeeeeeeeeeeeeeeeeeeeeeeeeeeee0ew0w9-19eeeeeeeeeeeeeee  ",
    "  eeeeeeeeeeeeeeeww99eeeeeeeeeeeeeeeeeeeeeeeeeeeeeeeeeeeeeeeeeeeeeeeeeeeeeee0ww0qweeeeeeeeeeeeeeee  ",
    "  eeeeeeeeeeeeeeeeeeeeeeeeeeeeeeeeeeeeeeeeeeeeeeeeeeeeeeeeeeeeeeeeeeeeeeeeeeeeeeeeeeeeeeeeeeeeeeee  ",
    "  eeeeeeeeeeeeeeeeeeeeeeeeeeeeeeeeeeeeeeeeeeeeeeeeeeeeeeeeeeeeeeeeeeeeeeeeeeeeeeeeeeeeeeeeeeeeeeee  ",
    "  eeeeeeeeeeeeeeeeeeeeeeeeeeeeeeeeeeeeeeeeeeeeeeeeeeeeeeeeeeeeeeeeeeeeeeeeeeeeeeeeeeeeeeeeeeeeeeee  ",
    "  eeeeeeeeeeeeeeeeeeeeeeeeeeeeeeeeeeeeeeeeeeeeeeeeeeeeeeeeeeeeeeeeeeeeeeeeeeeeeeeeeeeeeeeeeeeeeeee  ",
    "  eeeeeeeeeeeeeeeeeeeeeeeeeeeeeeeeeeeeeeeeeeeeeeeeeeeeeeeeeeeeeeeeeeeeeeeeeeeeeeeeeeeeeeeeeeeeeeee  ",
    "  eeeeeeeeeeeeeeeeeeeeeeeeeeeeeeeeeeeeeeeeeeeeeeeeeeeeeeeeeeeeeeeeeeeeeeeeeeeeeeeeeeeeeeeeeeeeeeee  ",
    "  eeeeeeeeeeeeeeeeeeeeeeeeeeeeeeeeeeeeeeeeeeeeeeeeeeeeeeeeeeeeeeeeeeeeeeeeeeeeeeeeeeeeeeeeeeeeeeee  ",
    "  eeeeeeeeeeeeeeeeeeeeeeeeeeeeeeeeeeeeeeeeeeeeeeeeeeeeeeeeeeeeeeeeeeeeeeeeeeeeeeeeeeeeeeeeeeeeeeee  ",
    "  eeeeeeeeeeeeeeeeeeeeeeeeeeeeeeeeeeeeeeeeeeeeeeeeeeeeeeeeeeeeeeeeeeeeeeeeeeeeeeeeeeeeeeeeeeeeeeee  ",
    "  eeeeeeeeeeeeeeeeeeeeeeeeeeeeeeeeeeeeeeeeeeeeeeeeeeeeeeeeeeeeeeeeeeeeeeeeeeeeeeeeeeeeeeeeeeeeeeee  ",
    "                                                                                                    ",
    "                                                                                                    "};
